<?xml version="1.0" encoding="utf-8"?>
<!-- Generator: Adobe Illustrator 19.0.1, SVG Export Plug-In . SVG Version: 6.00 Build 0)  -->
<svg version="1.1" id="Layer_1" xmlns="http://www.w3.org/2000/svg" xmlns:xlink="http://www.w3.org/1999/xlink" x="0px" y="0px"
	 viewBox="215 174.9 198.9 492" style="enable-background:new 215 174.9 198.9 492;" xml:space="preserve">
<g>
	<g>
		<path d="M409.9,264.4l-85.4-85.4c-2.6-2.6-6.1-4-10.2-4c-3.7,0-7.2,1.4-9.8,4L219,264.3c-2.6,2.6-4.1,6.1-4.1,9.8s1.4,7.2,4.1,9.8
			l7.4,7.4c5.2,5.2,13.9,5.2,19.1,0l49.4-49.8v411.4c0,7.6,7.1,14,14.8,14h10.5c7.6,0,13.1-6.3,13.1-14V242.8l49,48.7
			c5.2,5.2,14.6,5.2,19.8,0l7.5-7.4c2.6-2.6,4.1-6.1,4.1-9.8C413.9,270.5,412.5,267,409.9,264.4z"/>
	</g>
</g>
</svg>
