<?xml version="1.0" encoding="utf-8"?>
<!-- Generator: Adobe Illustrator 19.0.1, SVG Export Plug-In . SVG Version: 6.00 Build 0)  -->
<svg version="1.1" id="Layer_1" xmlns="http://www.w3.org/2000/svg" xmlns:xlink="http://www.w3.org/1999/xlink" x="0px" y="0px"
	 viewBox="-48.6 151.9 512 512" style="enable-background:new -48.6 151.9 512 512;" xml:space="preserve">
<path d="M463.4,151.9h-40v16h24v32h16V151.9z M383.4,151.9h-40v16h40V151.9z M303.4,151.9h-40v16h40V151.9z M223.4,151.9h-40v16h40
	V151.9z M143.4,151.9h-40v16h40V151.9z M63.4,151.9h-40v16h40V151.9z M-16.6,151.9h-32v16h32V151.9z M-32.6,199.9h-16v40h16V199.9z
	 M-32.6,279.9h-16v40h16V279.9z M-32.6,359.9h-16v40h16V359.9z M-32.6,439.9h-16v40h16V439.9z M-32.6,519.9h-16v40h16V519.9z
	 M-32.6,599.9h-16v40h16V599.9z M7.4,647.9h-40v16h40V647.9z M87.4,647.9h-40v16h40V647.9z M167.4,647.9h-40v16h40V647.9z
	 M247.4,647.9h-40v16h40V647.9z M327.4,647.9h-40v16h40V647.9z M407.4,647.9h-40v16h40V647.9z M463.4,639.9h-16v24h16V639.9z
	 M463.4,559.9h-16v40h16V559.9z M463.4,479.9h-16v40h16V479.9z M463.4,399.9h-16v40h16V399.9z M463.4,319.9h-16v40h16V319.9z
	 M463.4,239.9h-16v40h16V239.9z"/>
<g>
	<g>
		<g>
			<path d="M322.9,331h-38.5l-22.3-24.3H177v36.5h-36.5v36.5h-36.5v121.6c0,13.4,10.9,24.3,24.3,24.3h194.6
				c13.4,0,24.3-10.9,24.3-24.3V355.3C347.3,342,336.3,331,322.9,331z M225.7,489.1c-33.6,0-60.8-27.2-60.8-60.8
				s27.2-60.8,60.8-60.8s60.8,27.2,60.8,60.8S259.2,489.1,225.7,489.1z"/>
			<polygon points="104.1,367.5 128.4,367.5 128.4,331 164.9,331 164.9,306.7 128.4,306.7 128.4,270.2 104.1,270.2 104.1,306.7 
				67.6,306.7 67.6,331 104.1,331 			"/>
			<path d="M225.7,389.4c-21.5,0-38.9,17.4-38.9,38.9l0,0c0,21.5,17.4,38.9,38.9,38.9s38.9-17.4,38.9-38.9
				C264.6,406.8,247.2,389.4,225.7,389.4z"/>
		</g>
	</g>
</g>
</svg>
