<?xml version="1.0" encoding="utf-8"?>
<!-- Generator: Adobe Illustrator 19.0.1, SVG Export Plug-In . SVG Version: 6.00 Build 0)  -->
<svg version="1.1" id="Capa_1" xmlns="http://www.w3.org/2000/svg" xmlns:xlink="http://www.w3.org/1999/xlink" x="0px" y="0px"
	 viewBox="-41 164.9 512 512" style="enable-background:new -41 164.9 512 512;" xml:space="preserve">
<path d="M471,420.9c0,50.5-15,99.7-43.4,142.1c-6.1,9.2-18.6,11.7-27.7,5.5c-9.2-6.1-11.6-18.6-5.5-27.7
	c24-35.8,36.6-77.3,36.6-119.9c0-119.1-96.9-216-216-216S-1,301.8-1,420.9s96.9,216,216,216c39.5,0,78.1-10.8,111.7-31.1
	c9.4-5.7,21.7-2.7,27.5,6.7c5.7,9.4,2.7,21.7-6.7,27.5c-39.8,24.1-85.6,36.9-132.5,36.9c-68.4,0-132.7-26.6-181-75
	c-48.4-48.4-75-112.6-75-181s26.6-132.7,75-181c48.4-48.4,112.6-75,181-75s132.7,26.6,181,75C444.4,288.2,471,352.5,471,420.9z
	 M132,400.9c-27.6,0-50-22.4-50-50s22.4-50,50-50s50,22.4,50,50S159.6,400.9,132,400.9z M142,350.9c0-5.5-4.5-10-10-10
	s-10,4.5-10,10s4.5,10,10,10S142,356.4,142,350.9z M247,490.9c0-27.6,22.4-50,50-50s50,22.4,50,50s-22.4,50-50,50
	S247,518.5,247,490.9z M287,490.9c0,5.5,4.5,10,10,10s10-4.5,10-10s-4.5-10-10-10S287,485.4,287,490.9z M153.3,538.5
	c3,1.6,6.3,2.4,9.5,2.4c7.1,0,14-3.8,17.6-10.5l108.1-200c5.3-9.7,1.6-21.9-8.1-27.1c-9.7-5.3-21.9-1.6-27.1,8.1l-108.1,200
	C140,521.1,143.6,533.2,153.3,538.5z"/>
</svg>
