<?xml version="1.0" encoding="utf-8"?>
<!-- Generator: Adobe Illustrator 19.0.1, SVG Export Plug-In . SVG Version: 6.00 Build 0)  -->
<svg version="1.1" id="Layer_1" xmlns="http://www.w3.org/2000/svg" xmlns:xlink="http://www.w3.org/1999/xlink" x="0px" y="0px"
	 viewBox="-41 275.8 512 290.2" style="enable-background:new -41 275.8 512 290.2;" xml:space="preserve">
<g>
	<g>
		<path d="M462.7,396.8c-28.7-36.8-66-67.3-107.6-88.1c-42.5-21.2-88.3-32.3-136.1-32.8c-1.3,0-6.6,0-7.9,0
			c-47.8,0.6-93.6,11.6-136.1,32.8C33.3,329.5-4,359.9-32.7,396.8c-11.1,14.2-11.1,34,0,48.2c28.7,36.8,66,67.3,107.6,88.1
			c42.5,21.2,88.3,32.3,136.1,32.8c1.3,0,6.6,0,7.9,0c47.8-0.6,93.6-11.6,136.1-32.8c41.7-20.8,78.9-51.3,107.6-88.1
			C473.8,430.8,473.8,411,462.7,396.8z M84.2,514.5c-38.9-19.4-73.7-47.9-100.5-82.3c-5.2-6.7-5.2-15.9,0-22.6
			c26.8-34.4,61.6-62.9,100.5-82.3c11.1-5.5,22.3-10.3,33.8-14.3c-29.6,26.6-48.2,65.1-48.2,107.9c0,42.8,18.6,81.3,48.2,107.9
			C106.6,524.8,95.3,520,84.2,514.5z M215,545.2c-68.5,0-124.3-55.8-124.3-124.3S146.5,296.6,215,296.6s124.3,55.8,124.3,124.3
			S283.5,545.2,215,545.2z M446.3,432.2c-26.8,34.4-61.6,62.9-100.5,82.3c-11,5.5-22.3,10.3-33.8,14.3
			c29.6-26.6,48.2-65.1,48.2-107.9c0-42.8-18.6-81.4-48.2-107.9c11.5,4,22.8,8.8,33.9,14.3c38.9,19.4,73.7,47.9,100.5,82.3
			C451.5,416.2,451.5,425.5,446.3,432.2z"/>
	</g>
</g>
<g>
	<g>
		<path d="M215,367.7c-29.3,0-53.2,23.9-53.2,53.2c0,29.3,23.9,53.2,53.2,53.2s53.2-23.9,53.2-53.2
			C268.2,391.6,244.3,367.7,215,367.7z M215,453.3c-17.8,0-32.4-14.5-32.4-32.4c0-17.8,14.5-32.4,32.4-32.4
			c17.8,0,32.4,14.5,32.4,32.4C247.4,438.7,232.8,453.3,215,453.3z"/>
	</g>
</g>
</svg>
