<?xml version="1.0" encoding="utf-8"?>
<!-- Generator: Adobe Illustrator 19.0.1, SVG Export Plug-In . SVG Version: 6.00 Build 0)  -->
<svg version="1.1" id="Capa_1" xmlns="http://www.w3.org/2000/svg" xmlns:xlink="http://www.w3.org/1999/xlink" x="0px" y="0px"
	 viewBox="-61 213.7 471.7 414.7" style="enable-background:new -61 213.7 471.7 414.7;" xml:space="preserve">
<g>
	<path d="M372.6,252.2c-24.7-24.7-57.4-38.2-92.3-38.2s-67.7,13.6-92.4,38.3L175,265.2l-13.1-13.1c-24.7-24.7-57.6-38.4-92.5-38.4
		c-34.8,0-67.6,13.6-92.2,38.2c-24.7,24.7-38.3,57.5-38.2,92.4c0,34.9,13.7,67.6,38.4,92.3l187.8,187.8c2.6,2.6,6.1,4,9.5,4
		s6.9-1.3,9.5-3.9L372.4,437c24.7-24.7,38.3-57.5,38.3-92.4C410.8,309.7,397.3,276.9,372.6,252.2z M353.4,417.9l-178.7,178
		L-3.6,417.6C-23.2,398-34,372-34,344.3s10.7-53.7,30.3-73.2c19.5-19.5,45.5-30.3,73.1-30.3c27.7,0,53.8,10.8,73.4,30.4l22.6,22.6
		c5.3,5.3,13.8,5.3,19.1,0l22.4-22.4c19.6-19.6,45.7-30.4,73.3-30.4c27.6,0,53.6,10.8,73.2,30.3c19.6,19.6,30.3,45.6,30.3,73.3
		C383.8,372.3,373,398.3,353.4,417.9z"/>
</g>
</svg>
