<?xml version="1.0" encoding="utf-8"?>
<!-- Generator: Adobe Illustrator 19.0.1, SVG Export Plug-In . SVG Version: 6.00 Build 0)  -->
<svg version="1.1" id="Capa_1" xmlns="http://www.w3.org/2000/svg" xmlns:xlink="http://www.w3.org/1999/xlink" x="0px" y="0px"
	 viewBox="-94 227.5 406.2 386.4" style="enable-background:new -94 227.5 406.2 386.4;" xml:space="preserve">
<style type="text/css">
	.st0{fill:#FF7800;}
	.st1{fill:#CCCCCC;}
</style>
<g>
	<path class="st0" d="M109.2,227.5V527c-2.4,0-4.8,0.7-6.6,2l-115,83.5c-3.6,2.6-5.5,1.3-4.1-3l43.9-135.1c1.4-4.3-0.4-9.9-4.1-12.5
		l-115-83.5c-3.6-2.7-2.9-4.8,1.5-4.8H52.1c4.5,0,9.3-3.5,10.6-7.7l43.9-135.2C107.3,228.6,108.3,227.5,109.2,227.5z"/>
</g>
<path class="st1" d="M309.9,378.4l-115,83.5c-3.6,2.6-5.5,8.2-4.1,12.5l43.9,135.2c1.4,4.3-0.4,5.6-4.1,3l-115-83.5
	c-1.8-1.3-4.2-2-6.6-2V227.5c0.9,0,1.8,1.1,2.5,3.2l44.1,135.2c1.4,4.3,6.2,7.7,10.6,7.7h142.1C312.8,373.6,313.5,375.8,309.9,378.4
	z"/>
</svg>
