<?xml version="1.0" encoding="utf-8"?>
<!-- Generator: Adobe Illustrator 19.0.1, SVG Export Plug-In . SVG Version: 6.00 Build 0)  -->
<svg version="1.1" id="Capa_1" xmlns="http://www.w3.org/2000/svg" xmlns:xlink="http://www.w3.org/1999/xlink" x="0px" y="0px"
	 viewBox="184.1 412.8 18 16.1" style="enable-background:new 184.1 412.8 18 16.1;" xml:space="preserve">
<g>
	<g>
		<path d="M191.2,423.8l0.6-0.9c0.1-0.2,0.1-0.5-0.1-0.6c-0.2-0.1-0.5-0.1-0.6,0.1l-0.6,0.9c-1,1.6-2.4,2.5-3.9,2.5h-2
			c-0.2,0-0.4,0.2-0.4,0.5c0,0.2,0.2,0.5,0.4,0.5h2C188.3,426.7,190,425.6,191.2,423.8z"/>
		<path d="M201.9,415.1l-2.2-2.2c-0.2-0.2-0.5-0.2-0.6,0c-0.2,0.2-0.2,0.5,0,0.6l1.4,1.4c0,0,0,0,0,0h-2.1c-1.8,0-3.5,1.1-4.7,3
			l-0.3,0.5c-0.1,0.2-0.1,0.5,0.1,0.6c0.1,0,0.2,0.1,0.2,0.1c0.2,0,0.3-0.1,0.4-0.2l0.3-0.5c1-1.6,2.4-2.5,3.9-2.5h2.1c0,0,0,0,0,0
			l-1.4,1.4c-0.2,0.2-0.2,0.5,0,0.6c0.1,0.1,0.2,0.1,0.3,0.1c0.1,0,0.2,0,0.3-0.1l2.2-2.2C202.1,415.6,202.1,415.3,201.9,415.1z
			 M201,415.4C201,415.4,201,415.4,201,415.4C201,415.4,201,415.4,201,415.4L201,415.4L201,415.4z"/>
		<path d="M199.1,428.8c0.1,0.1,0.2,0.1,0.3,0.1c0.1,0,0.2,0,0.3-0.1l2.2-2.2c0.2-0.2,0.2-0.5,0-0.6l-2.2-2.2
			c-0.2-0.2-0.5-0.2-0.6,0c-0.2,0.2-0.2,0.5,0,0.6l1.4,1.4c0,0,0,0,0,0h-2c-1.5,0-2.9-0.9-3.9-2.5l-3.3-5.4c-1.2-1.9-2.9-3-4.7-3
			h-2.1c-0.2,0-0.4,0.2-0.4,0.5c0,0.2,0.2,0.5,0.4,0.5h2.1c1.5,0,2.9,0.9,3.9,2.5l3.3,5.4c1.2,1.9,2.9,3,4.7,3h2c0,0,0,0,0,0
			l-1.4,1.4C198.9,428.3,198.9,428.6,199.1,428.8z M201,426.3L201,426.3L201,426.3C201,426.3,201,426.3,201,426.3
			C201,426.3,201,426.3,201,426.3z"/>
	</g>
</g>
</svg>
