<?xml version="1.0" encoding="utf-8"?><svg xmlns="http://www.w3.org/2000/svg" viewBox="-48.6 151.9 512 512" width="512" height="512"><path d="M463.4 151.9h-40v16h24v32h16v-48zm-80 0h-40v16h40v-16zm-80 0h-40v16h40v-16zm-80 0h-40v16h40v-16zm-80 0h-40v16h40v-16zm-80 0h-40v16h40v-16zm-80 0h-32v16h32v-16zm-16 48h-16v40h16v-40zm0 80h-16v40h16v-40zm0 80h-16v40h16v-40zm0 80h-16v40h16v-40zm0 80h-16v40h16v-40zm0 80h-16v40h16v-40zm40 48h-40v16h40v-16zm80 0h-40v16h40v-16zm80 0h-40v16h40v-16zm80 0h-40v16h40v-16zm80 0h-40v16h40v-16zm80 0h-40v16h40v-16zm56-8h-16v24h16v-24zm0-80h-16v40h16v-40zm0-80h-16v40h16v-40zm0-80h-16v40h16v-40zm0-80h-16v40h16v-40zm0-80h-16v40h16v-40zM322.9 331h-38.5l-22.3-24.3H177v36.5h-36.5v36.5H104v121.6c0 13.4 10.9 24.3 24.3 24.3h194.6c13.4 0 24.3-10.9 24.3-24.3v-146c.1-13.3-10.9-24.3-24.3-24.3zm-97.2 158.1c-33.6 0-60.8-27.2-60.8-60.8s27.2-60.8 60.8-60.8 60.8 27.2 60.8 60.8-27.3 60.8-60.8 60.8z"/><path d="M104.1 367.5h24.3V331h36.5v-24.3h-36.5v-36.5h-24.3v36.5H67.6V331h36.5zM225.7 389.4c-21.5 0-38.9 17.4-38.9 38.9s17.4 38.9 38.9 38.9 38.9-17.4 38.9-38.9-17.4-38.9-38.9-38.9z"/></svg>