<?xml version="1.0" encoding="utf-8"?><svg xmlns="http://www.w3.org/2000/svg" viewBox="-41 164.9 512 512" width="512" height="512"><path d="M471 420.9c0 50.5-15 99.7-43.4 142.1-6.1 9.2-18.6 11.7-27.7 5.5-9.2-6.1-11.6-18.6-5.5-27.7 24-35.8 36.6-77.3 36.6-119.9 0-119.1-96.9-216-216-216S-1 301.8-1 420.9s96.9 216 216 216c39.5 0 78.1-10.8 111.7-31.1 9.4-5.7 21.7-2.7 27.5 6.7 5.7 9.4 2.7 21.7-6.7 27.5-39.8 24.1-85.6 36.9-132.5 36.9-68.4 0-132.7-26.6-181-75-48.4-48.4-75-112.6-75-181s26.6-132.7 75-181c48.4-48.4 112.6-75 181-75s132.7 26.6 181 75c48.4 48.3 75 112.6 75 181zm-339-20c-27.6 0-50-22.4-50-50s22.4-50 50-50 50 22.4 50 50-22.4 50-50 50zm10-50c0-5.5-4.5-10-10-10s-10 4.5-10 10 4.5 10 10 10 10-4.5 10-10zm105 140c0-27.6 22.4-50 50-50s50 22.4 50 50-22.4 50-50 50-50-22.4-50-50zm40 0c0 5.5 4.5 10 10 10s10-4.5 10-10-4.5-10-10-10-10 4.5-10 10zm-133.7 47.6c3 1.6 6.3 2.4 9.5 2.4 7.1 0 14-3.8 17.6-10.5l108.1-200c5.3-9.7 1.6-21.9-8.1-27.1-9.7-5.3-21.9-1.6-27.1 8.1l-108.1 200c-5.2 9.7-1.6 21.8 8.1 27.1z"/></svg>