<?xml version="1.0" encoding="utf-8"?><svg xmlns="http://www.w3.org/2000/svg" viewBox="-41 275.8 512 290.2" width="512" height="290.2"><path d="M462.7 396.8c-28.7-36.8-66-67.3-107.6-88.1-42.5-21.2-88.3-32.3-136.1-32.8h-7.9c-47.8.6-93.6 11.6-136.1 32.8-41.7 20.8-79 51.2-107.7 88.1-11.1 14.2-11.1 34 0 48.2 28.7 36.8 66 67.3 107.6 88.1 42.5 21.2 88.3 32.3 136.1 32.8h7.9c47.8-.6 93.6-11.6 136.1-32.8 41.7-20.8 78.9-51.3 107.6-88.1 11.2-14.2 11.2-34 .1-48.2zM84.2 514.5c-38.9-19.4-73.7-47.9-100.5-82.3-5.2-6.7-5.2-15.9 0-22.6 26.8-34.4 61.6-62.9 100.5-82.3 11.1-5.5 22.3-10.3 33.8-14.3-29.6 26.6-48.2 65.1-48.2 107.9 0 42.8 18.6 81.3 48.2 107.9-11.4-4-22.7-8.8-33.8-14.3zM215 545.2c-68.5 0-124.3-55.8-124.3-124.3S146.5 296.6 215 296.6s124.3 55.8 124.3 124.3S283.5 545.2 215 545.2zm231.3-113c-26.8 34.4-61.6 62.9-100.5 82.3-11 5.5-22.3 10.3-33.8 14.3 29.6-26.6 48.2-65.1 48.2-107.9 0-42.8-18.6-81.4-48.2-107.9 11.5 4 22.8 8.8 33.9 14.3 38.9 19.4 73.7 47.9 100.5 82.3 5.1 6.6 5.1 15.9-.1 22.6z"/><path d="M215 367.7c-29.3 0-53.2 23.9-53.2 53.2 0 29.3 23.9 53.2 53.2 53.2s53.2-23.9 53.2-53.2c0-29.3-23.9-53.2-53.2-53.2zm0 85.6c-17.8 0-32.4-14.5-32.4-32.4 0-17.8 14.5-32.4 32.4-32.4 17.8 0 32.4 14.5 32.4 32.4 0 17.8-14.6 32.4-32.4 32.4z"/></svg>