<?xml version="1.0" encoding="utf-8"?><svg version="1.1" id="bcCapa_1" xmlns="http://www.w3.org/2000/svg" x="0" y="0" viewBox="-94 227.5 406.2 386.4" xml:space="preserve" width="406.2" height="386.4"><style>.bcst0{fill:#ff7800}.bcst1{fill:#ccc}</style><path class="bcst0" d="M109.2 227.5V527c-2.4 0-4.8.7-6.6 2l-115 83.5c-3.6 2.6-5.5 1.3-4.1-3l43.9-135.1c1.4-4.3-.4-9.9-4.1-12.5l-115-83.5c-3.6-2.7-2.9-4.8 1.5-4.8H52.1c4.5 0 9.3-3.5 10.6-7.7l43.9-135.2c.7-2.1 1.7-3.2 2.6-3.2z"/><path class="bcst1" d="M309.9 378.4l-115 83.5c-3.6 2.6-5.5 8.2-4.1 12.5l43.9 135.2c1.4 4.3-.4 5.6-4.1 3l-115-83.5c-1.8-1.3-4.2-2-6.6-2V227.5c.9 0 1.8 1.1 2.5 3.2l44.1 135.2c1.4 4.3 6.2 7.7 10.6 7.7h142.1c4.5 0 5.2 2.2 1.6 4.8z"/></svg>