<?xml version="1.0" encoding="utf-8"?><svg height="512" width="512" xmlns="http://www.w3.org/2000/svg" viewBox="0 0 512 512"><path d="M491.991 80h-372V20c0-11.046-8.954-20-20-20H20C8.954 0 0 8.954 0 20s8.954 20 20 20h59.991v292c0 11.046 8.954 20 20 20h332.513a19.999 19.999 0 0019.373-15.033l59.487-232C514.605 92.33 505.047 80 491.991 80zm-75.006 232H119.991V120h346.225zm-276.994 80c-33.084 0-60 26.916-60 60s26.916 60 60 60 60-26.916 60-60-26.916-60-60-60zm0 80c-11.028 0-20-8.972-20-20s8.972-20 20-20 20 8.972 20 20-8.972 20-20 20zm213.091-80c-33.084 0-60 26.916-60 60s26.916 60 60 60 60-26.916 60-60-26.916-60-60-60zm0 80c-11.028 0-20-8.972-20-20s8.972-20 20-20 20 8.972 20 20-8.972 20-20 20z"/></svg>