<?xml version="1.0" encoding="utf-8"?><svg xmlns="http://www.w3.org/2000/svg" viewBox="184.1 412.8 18 16.1" width="18" height="16.1"><path d="M191.2 423.8l.6-.9c.1-.2.1-.5-.1-.6-.2-.1-.5-.1-.6.1l-.6.9c-1 1.6-2.4 2.5-3.9 2.5h-2c-.2 0-.4.2-.4.5 0 .2.2.5.4.5h2c1.7-.1 3.4-1.2 4.6-3zM201.9 415.1l-2.2-2.2c-.2-.2-.5-.2-.6 0-.2.2-.2.5 0 .6l1.4 1.4h-2.1c-1.8 0-3.5 1.1-4.7 3l-.3.5c-.1.2-.1.5.1.6.1 0 .2.1.2.1.2 0 .3-.1.4-.2l.3-.5c1-1.6 2.4-2.5 3.9-2.5h2.1l-1.4 1.4c-.2.2-.2.5 0 .6.1.1.2.1.3.1.1 0 .2 0 .3-.1l2.2-2.2c.3-.1.3-.4.1-.6zm-.9.3z"/><path d="M199.1 428.8c.1.1.2.1.3.1.1 0 .2 0 .3-.1l2.2-2.2c.2-.2.2-.5 0-.6l-2.2-2.2c-.2-.2-.5-.2-.6 0-.2.2-.2.5 0 .6l1.4 1.4h-2c-1.5 0-2.9-.9-3.9-2.5l-3.3-5.4c-1.2-1.9-2.9-3-4.7-3h-2.1c-.2 0-.4.2-.4.5 0 .2.2.5.4.5h2.1c1.5 0 2.9.9 3.9 2.5l3.3 5.4c1.2 1.9 2.9 3 4.7 3h2l-1.4 1.4c-.2.1-.2.4 0 .6zm1.9-2.5z"/></svg>