<?xml version="1.0" encoding="iso-8859-1"?><!DOCTYPE svg PUBLIC "-//W3C//DTD SVG 1.1//EN" "http://www.w3.org/Graphics/SVG/1.1/DTD/svg11.dtd"><svg viewBox="0 0 512 512" xmlns="http://www.w3.org/2000/svg" xmlns:xlink="http://www.w3.org/1999/xlink"><style>:root>svg{display:none}:root>svg:target{display:block}</style><svg viewBox="0 0 512 512" id="adjust" xmlns="http://www.w3.org/2000/svg"><path d="M490.667 405.333h-56.811C424.619 374.592 396.373 352 362.667 352s-61.931 22.592-71.189 53.333H21.333C9.557 405.333 0 414.891 0 426.667S9.557 448 21.333 448h270.144c9.237 30.741 37.483 53.333 71.189 53.333s61.931-22.592 71.189-53.333h56.811c11.797 0 21.333-9.557 21.333-21.333s-9.535-21.334-21.332-21.334zm-128 53.334c-17.643 0-32-14.357-32-32s14.357-32 32-32 32 14.357 32 32-14.358 32-32 32zM490.667 64h-56.811c-9.259-30.741-37.483-53.333-71.189-53.333S300.736 33.259 291.477 64H21.333C9.557 64 0 73.557 0 85.333s9.557 21.333 21.333 21.333h270.144C300.736 137.408 328.96 160 362.667 160s61.931-22.592 71.189-53.333h56.811c11.797 0 21.333-9.557 21.333-21.333S502.464 64 490.667 64zm-128 53.333c-17.643 0-32-14.357-32-32s14.357-32 32-32 32 14.357 32 32-14.358 32-32 32zM490.667 234.667H220.523c-9.259-30.741-37.483-53.333-71.189-53.333s-61.931 22.592-71.189 53.333H21.333C9.557 234.667 0 244.224 0 256c0 11.776 9.557 21.333 21.333 21.333h56.811c9.259 30.741 37.483 53.333 71.189 53.333s61.931-22.592 71.189-53.333h270.144c11.797 0 21.333-9.557 21.333-21.333.001-11.776-9.535-21.333-21.332-21.333zM149.333 288c-17.643 0-32-14.357-32-32s14.357-32 32-32 32 14.357 32 32-14.357 32-32 32z"/></svg><svg viewBox="215 174.9 198.9 492" id="arrow" xmlns="http://www.w3.org/2000/svg"><path d="M409.9 264.4L324.5 179c-2.6-2.6-6.1-4-10.2-4-3.7 0-7.2 1.4-9.8 4L219 264.3c-2.6 2.6-4.1 6.1-4.1 9.8s1.4 7.2 4.1 9.8l7.4 7.4c5.2 5.2 13.9 5.2 19.1 0l49.4-49.8v411.4c0 7.6 7.1 14 14.8 14h10.5c7.6 0 13.1-6.3 13.1-14V242.8l49 48.7c5.2 5.2 14.6 5.2 19.8 0l7.5-7.4c2.6-2.6 4.1-6.1 4.1-9.8.2-3.8-1.2-7.3-3.8-9.9z"/></svg><svg viewBox="0 0 512 512" id="arrow_(1)" xmlns="http://www.w3.org/2000/svg"><path d="M506.134 241.843l-.018-.019-104.504-104c-7.829-7.791-20.492-7.762-28.285.068-7.792 7.829-7.762 20.492.067 28.284L443.558 236H20c-11.046 0-20 8.954-20 20s8.954 20 20 20h423.557l-70.162 69.824c-7.829 7.792-7.859 20.455-.067 28.284 7.793 7.831 20.457 7.858 28.285.068l104.504-104 .018-.019c7.833-7.818 7.808-20.522-.001-28.314z"/></svg><svg viewBox="0 0 511.414 511.414" id="box_(2)" xmlns="http://www.w3.org/2000/svg"><path d="M497.695 108.838a16.002 16.002 0 00-9.92-14.8L261.787 1.2a16.003 16.003 0 00-12.16 0L23.639 94.038a16 16 0 00-9.92 14.8v293.738a16 16 0 009.92 14.8l225.988 92.838a15.947 15.947 0 0012.14-.001c.193-.064-8.363 3.445 226.008-92.837a16 16 0 009.92-14.8zm-241.988 76.886l-83.268-34.207L352.39 73.016l88.837 36.495zm-209.988-51.67l71.841 29.513v83.264c0 8.836 7.164 16 16 16s16-7.164 16-16v-70.118l90.147 37.033v257.797L45.719 391.851zM255.707 33.297l55.466 22.786-179.951 78.501-61.035-25.074zm16 180.449l193.988-79.692v257.797l-193.988 79.692z"/></svg><svg viewBox="-48.6 151.9 512 512" id="camera" xmlns="http://www.w3.org/2000/svg"><path d="M463.4 151.9h-40v16h24v32h16v-48zm-80 0h-40v16h40v-16zm-80 0h-40v16h40v-16zm-80 0h-40v16h40v-16zm-80 0h-40v16h40v-16zm-80 0h-40v16h40v-16zm-80 0h-32v16h32v-16zm-16 48h-16v40h16v-40zm0 80h-16v40h16v-40zm0 80h-16v40h16v-40zm0 80h-16v40h16v-40zm0 80h-16v40h16v-40zm0 80h-16v40h16v-40zm40 48h-40v16h40v-16zm80 0h-40v16h40v-16zm80 0h-40v16h40v-16zm80 0h-40v16h40v-16zm80 0h-40v16h40v-16zm80 0h-40v16h40v-16zm56-8h-16v24h16v-24zm0-80h-16v40h16v-40zm0-80h-16v40h16v-40zm0-80h-16v40h16v-40zm0-80h-16v40h16v-40zm0-80h-16v40h16v-40zM322.9 331h-38.5l-22.3-24.3H177v36.5h-36.5v36.5H104v121.6c0 13.4 10.9 24.3 24.3 24.3h194.6c13.4 0 24.3-10.9 24.3-24.3v-146c.1-13.3-10.9-24.3-24.3-24.3zm-97.2 158.1c-33.6 0-60.8-27.2-60.8-60.8s27.2-60.8 60.8-60.8 60.8 27.2 60.8 60.8-27.3 60.8-60.8 60.8z"/><path d="M104.1 367.5h24.3V331h36.5v-24.3h-36.5v-36.5h-24.3v36.5H67.6V331h36.5zM225.7 389.4c-21.5 0-38.9 17.4-38.9 38.9s17.4 38.9 38.9 38.9 38.9-17.4 38.9-38.9-17.4-38.9-38.9-38.9z"/></svg><svg viewBox="-41 164.9 512 512" id="cashback" xmlns="http://www.w3.org/2000/svg"><path d="M471 420.9c0 50.5-15 99.7-43.4 142.1-6.1 9.2-18.6 11.7-27.7 5.5-9.2-6.1-11.6-18.6-5.5-27.7 24-35.8 36.6-77.3 36.6-119.9 0-119.1-96.9-216-216-216S-1 301.8-1 420.9s96.9 216 216 216c39.5 0 78.1-10.8 111.7-31.1 9.4-5.7 21.7-2.7 27.5 6.7 5.7 9.4 2.7 21.7-6.7 27.5-39.8 24.1-85.6 36.9-132.5 36.9-68.4 0-132.7-26.6-181-75-48.4-48.4-75-112.6-75-181s26.6-132.7 75-181c48.4-48.4 112.6-75 181-75s132.7 26.6 181 75c48.4 48.3 75 112.6 75 181zm-339-20c-27.6 0-50-22.4-50-50s22.4-50 50-50 50 22.4 50 50-22.4 50-50 50zm10-50c0-5.5-4.5-10-10-10s-10 4.5-10 10 4.5 10 10 10 10-4.5 10-10zm105 140c0-27.6 22.4-50 50-50s50 22.4 50 50-22.4 50-50 50-50-22.4-50-50zm40 0c0 5.5 4.5 10 10 10s10-4.5 10-10-4.5-10-10-10-10 4.5-10 10zm-133.7 47.6c3 1.6 6.3 2.4 9.5 2.4 7.1 0 14-3.8 17.6-10.5l108.1-200c5.3-9.7 1.6-21.9-8.1-27.1-9.7-5.3-21.9-1.6-27.1 8.1l-108.1 200c-5.2 9.7-1.6 21.8 8.1 27.1z"/></svg><svg viewBox="0 0 329.269 329" id="close" xmlns="http://www.w3.org/2000/svg"><path d="M194.8 164.77L323.013 36.555c8.343-8.34 8.343-21.825 0-30.164-8.34-8.34-21.825-8.34-30.164 0L164.633 134.605 36.422 6.391c-8.344-8.34-21.824-8.34-30.164 0-8.344 8.34-8.344 21.824 0 30.164l128.21 128.215L6.259 292.984c-8.344 8.34-8.344 21.825 0 30.164a21.266 21.266 0 0015.082 6.25c5.46 0 10.922-2.09 15.082-6.25l128.21-128.214 128.216 128.214a21.273 21.273 0 0015.082 6.25c5.46 0 10.922-2.09 15.082-6.25 8.343-8.34 8.343-21.824 0-30.164zm0 0"/></svg><svg viewBox="-97.4 285.3 305.5 459" id="compare" xmlns="http://www.w3.org/2000/svg"><path d="M-97.4 744.3h51v-459h-51v459zm178.5 0V561.8h-51v182.6h51zm127 0v-306h-51v306h51z"/></svg><svg viewBox="-241.4 477.2 305.5 459.1" id="compare1" xmlns="http://www.w3.org/2000/svg"><path d="M13.1 936.2h51v-459h-51v459zm-76 .1v-306h-51v306h51zm-127.5-.1V753.7h-51v182.6h51v-.1z"/></svg><svg viewBox="0 0 224.512 224.512" id="cross-out" xmlns="http://www.w3.org/2000/svg"><path fill="#010002" d="M224.507 6.997L217.521 0 112.256 105.258 6.998 0 .005 6.997l105.258 105.257L.005 217.512l6.993 7L112.256 119.24l105.265 105.272 6.986-7-105.258-105.258z"/></svg><svg viewBox="0 0 512 512" id="delivery" xmlns="http://www.w3.org/2000/svg"><path d="M386.689 304.403c-35.587 0-64.538 28.951-64.538 64.538s28.951 64.538 64.538 64.538c35.593 0 64.538-28.951 64.538-64.538s-28.951-64.538-64.538-64.538zm0 96.807c-17.796 0-32.269-14.473-32.269-32.269s14.473-32.269 32.269-32.269 32.269 14.473 32.269 32.269c0 17.797-14.473 32.269-32.269 32.269zM166.185 304.403c-35.587 0-64.538 28.951-64.538 64.538s28.951 64.538 64.538 64.538 64.538-28.951 64.538-64.538-28.951-64.538-64.538-64.538zm0 96.807c-17.796 0-32.269-14.473-32.269-32.269s14.473-32.269 32.269-32.269c17.791 0 32.269 14.473 32.269 32.269 0 17.797-14.473 32.269-32.269 32.269zM430.15 119.675a16.143 16.143 0 00-14.419-8.885h-84.975v32.269h75.025l43.934 87.384 28.838-14.5-48.403-96.268z"/><path d="M216.202 353.345h122.084v32.269H216.202zM117.781 353.345H61.849c-8.912 0-16.134 7.223-16.134 16.134 0 8.912 7.223 16.134 16.134 16.134h55.933c8.912 0 16.134-7.223 16.134-16.134 0-8.912-7.223-16.134-16.135-16.134zM508.612 254.709l-31.736-40.874a16.112 16.112 0 00-12.741-6.239H346.891V94.655c0-8.912-7.223-16.134-16.134-16.134H61.849c-8.912 0-16.134 7.223-16.134 16.134s7.223 16.134 16.134 16.134h252.773V223.73c0 8.912 7.223 16.134 16.134 16.134h125.478l23.497 30.268v83.211h-44.639c-8.912 0-16.134 7.223-16.134 16.134 0 8.912 7.223 16.134 16.134 16.134h60.773c8.912 0 16.134-7.223 16.135-16.134V264.605c0-3.582-1.194-7.067-3.388-9.896zM116.706 271.597H42.487c-8.912 0-16.134 7.223-16.134 16.134 0 8.912 7.223 16.134 16.134 16.134h74.218c8.912 0 16.134-7.223 16.134-16.134.001-8.911-7.222-16.134-16.133-16.134zM153.815 208.134H16.134C7.223 208.134 0 215.357 0 224.269s7.223 16.134 16.134 16.134h137.681c8.912 0 16.134-7.223 16.134-16.134s-7.222-16.135-16.134-16.135z"/><path d="M180.168 144.672H42.487c-8.912 0-16.134 7.223-16.134 16.134 0 8.912 7.223 16.134 16.134 16.134h137.681c8.912 0 16.134-7.223 16.134-16.134.001-8.911-7.222-16.134-16.134-16.134z"/></svg><svg viewBox="0 0 511.626 511.627" id="external-link-symbol" xmlns="http://www.w3.org/2000/svg"><path d="M392.857 292.354h-18.274c-2.669 0-4.859.855-6.563 2.573-1.718 1.708-2.573 3.897-2.573 6.563v91.361c0 12.563-4.47 23.315-13.415 32.262-8.945 8.945-19.701 13.414-32.264 13.414H82.224c-12.562 0-23.317-4.469-32.264-13.414-8.945-8.946-13.417-19.698-13.417-32.262V155.31c0-12.562 4.471-23.313 13.417-32.259 8.947-8.947 19.702-13.418 32.264-13.418h200.994c2.669 0 4.859-.859 6.57-2.57 1.711-1.713 2.566-3.9 2.566-6.567V82.221c0-2.662-.855-4.853-2.566-6.563-1.711-1.713-3.901-2.568-6.57-2.568H82.224c-22.648 0-42.016 8.042-58.102 24.125C8.042 113.297 0 132.665 0 155.313v237.542c0 22.647 8.042 42.018 24.123 58.095 16.086 16.084 35.454 24.13 58.102 24.13h237.543c22.647 0 42.017-8.046 58.101-24.13 16.085-16.077 24.127-35.447 24.127-58.095v-91.358c0-2.669-.856-4.859-2.574-6.57-1.713-1.718-3.903-2.573-6.565-2.573z"/><path d="M506.199 41.971c-3.617-3.617-7.905-5.424-12.85-5.424H347.171c-4.948 0-9.233 1.807-12.847 5.424-3.617 3.615-5.428 7.898-5.428 12.847s1.811 9.233 5.428 12.85l50.247 50.248-186.147 186.151c-1.906 1.903-2.856 4.093-2.856 6.563 0 2.479.953 4.668 2.856 6.571l32.548 32.544c1.903 1.903 4.093 2.852 6.567 2.852s4.665-.948 6.567-2.852l186.148-186.148 50.251 50.248c3.614 3.617 7.898 5.426 12.847 5.426s9.233-1.809 12.851-5.426c3.617-3.616 5.424-7.898 5.424-12.847V54.818c-.001-4.952-1.814-9.232-5.428-12.847z"/></svg><svg viewBox="-41 275.8 512 290.2" id="eye" xmlns="http://www.w3.org/2000/svg"><path d="M462.7 396.8c-28.7-36.8-66-67.3-107.6-88.1-42.5-21.2-88.3-32.3-136.1-32.8h-7.9c-47.8.6-93.6 11.6-136.1 32.8-41.7 20.8-79 51.2-107.7 88.1-11.1 14.2-11.1 34 0 48.2 28.7 36.8 66 67.3 107.6 88.1 42.5 21.2 88.3 32.3 136.1 32.8h7.9c47.8-.6 93.6-11.6 136.1-32.8 41.7-20.8 78.9-51.3 107.6-88.1 11.2-14.2 11.2-34 .1-48.2zM84.2 514.5c-38.9-19.4-73.7-47.9-100.5-82.3-5.2-6.7-5.2-15.9 0-22.6 26.8-34.4 61.6-62.9 100.5-82.3 11.1-5.5 22.3-10.3 33.8-14.3-29.6 26.6-48.2 65.1-48.2 107.9 0 42.8 18.6 81.3 48.2 107.9-11.4-4-22.7-8.8-33.8-14.3zM215 545.2c-68.5 0-124.3-55.8-124.3-124.3S146.5 296.6 215 296.6s124.3 55.8 124.3 124.3S283.5 545.2 215 545.2zm231.3-113c-26.8 34.4-61.6 62.9-100.5 82.3-11 5.5-22.3 10.3-33.8 14.3 29.6-26.6 48.2-65.1 48.2-107.9 0-42.8-18.6-81.4-48.2-107.9 11.5 4 22.8 8.8 33.9 14.3 38.9 19.4 73.7 47.9 100.5 82.3 5.1 6.6 5.1 15.9-.1 22.6z"/><path d="M215 367.7c-29.3 0-53.2 23.9-53.2 53.2 0 29.3 23.9 53.2 53.2 53.2s53.2-23.9 53.2-53.2c0-29.3-23.9-53.2-53.2-53.2zm0 85.6c-17.8 0-32.4-14.5-32.4-32.4 0-17.8 14.5-32.4 32.4-32.4 17.8 0 32.4 14.5 32.4 32.4 0 17.8-14.6 32.4-32.4 32.4z"/></svg><svg viewBox="0 0 112.196 112.196" id="facebook" xmlns="http://www.w3.org/2000/svg"><circle cx="56.098" cy="56.098" r="56.098" fill="#3b5998"/><path d="M70.201 58.294h-10.01v36.672H45.025V58.294h-7.213V45.406h7.213v-8.34c0-5.964 2.833-15.303 15.301-15.303l11.234.047v12.51h-8.151c-1.337 0-3.217.668-3.217 3.513v7.585h11.334l-1.325 12.876z" fill="#fff"/></svg><svg viewBox="-61 213.7 471.7 414.7" id="heart" xmlns="http://www.w3.org/2000/svg"><path d="M372.6 252.2c-24.7-24.7-57.4-38.2-92.3-38.2s-67.7 13.6-92.4 38.3L175 265.2l-13.1-13.1c-24.7-24.7-57.6-38.4-92.5-38.4-34.8 0-67.6 13.6-92.2 38.2-24.7 24.7-38.3 57.5-38.2 92.4 0 34.9 13.7 67.6 38.4 92.3l187.8 187.8c2.6 2.6 6.1 4 9.5 4s6.9-1.3 9.5-3.9L372.4 437c24.7-24.7 38.3-57.5 38.3-92.4.1-34.9-13.4-67.7-38.1-92.4zm-19.2 165.7l-178.7 178L-3.6 417.6C-23.2 398-34 372-34 344.3s10.7-53.7 30.3-73.2c19.5-19.5 45.5-30.3 73.1-30.3 27.7 0 53.8 10.8 73.4 30.4l22.6 22.6c5.3 5.3 13.8 5.3 19.1 0l22.4-22.4c19.6-19.6 45.7-30.4 73.3-30.4 27.6 0 53.6 10.8 73.2 30.3 19.6 19.6 30.3 45.6 30.3 73.3.1 27.7-10.7 53.7-30.3 73.3z"/></svg><svg viewBox="-51 207.1 492.7 426.8" id="heart-active" xmlns="http://www.w3.org/2000/svg"><path d="M441.7 340.2c0-73.5-59.6-133.1-133.1-133.1-48 0-89.9 25.5-113.3 63.6-23.4-38.1-65.3-63.6-113.3-63.6-73.5 0-133 59.6-133 133.1 0 40 17.7 75.8 45.7 100.2L183.2 629c3.2 3.2 7.6 5 12.1 5s8.9-1.8 12.1-5L396 440.4c28-24.4 45.7-60.2 45.7-100.2z"/></svg><svg viewBox="0 0 512 512" id="information" xmlns="http://www.w3.org/2000/svg"><path d="M256 0C114.497 0 0 114.507 0 256c0 141.503 114.507 256 256 256 141.503 0 256-114.507 256-256C512 114.497 397.492 0 256 0zm0 472c-119.393 0-216-96.615-216-216 0-119.393 96.615-216 216-216 119.393 0 216 96.615 216 216 0 119.393-96.616 216-216 216z"/><path d="M256 214.33c-11.046 0-20 8.954-20 20v128.793c0 11.046 8.954 20 20 20s20-8.955 20-20.001V234.33c0-11.046-8.954-20-20-20z"/><circle cx="256" cy="162.84" r="27"/></svg><svg viewBox="0 0 512 512" id="instagram" xmlns="http://www.w3.org/2000/svg"><path d="M305 256c0 27.063-21.938 49-49 49s-49-21.938-49-49 21.938-49 49-49 49 21.938 49 49zm0 0"/><path d="M370.594 169.305a45.546 45.546 0 00-10.996-16.903 45.514 45.514 0 00-16.903-10.996c-5.18-2.011-12.96-4.406-27.293-5.058-15.504-.707-20.152-.86-59.402-.86-39.254 0-43.902.149-59.402.856-14.332.656-22.118 3.05-27.293 5.062a45.483 45.483 0 00-16.903 10.996 45.572 45.572 0 00-11 16.903c-2.011 5.18-4.406 12.965-5.058 27.297-.707 15.5-.86 20.148-.86 59.402 0 39.25.153 43.898.86 59.402.652 14.332 3.047 22.114 5.058 27.293a45.563 45.563 0 0010.996 16.903 45.514 45.514 0 0016.903 10.996c5.18 2.015 12.965 4.41 27.297 5.062 15.5.707 20.144.856 59.398.856 39.258 0 43.906-.149 59.402-.856 14.332-.652 22.118-3.047 27.297-5.062a48.68 48.68 0 0027.899-27.899c2.011-5.18 4.406-12.96 5.062-27.293.707-15.504.856-20.152.856-59.402 0-39.254-.149-43.902-.856-59.402-.652-14.332-3.047-22.118-5.062-27.297zM256 331.485c-41.691 0-75.488-33.794-75.488-75.485s33.797-75.484 75.488-75.484c41.688 0 75.484 33.793 75.484 75.484S297.688 331.484 256 331.484zm78.469-136.313c-9.742 0-17.64-7.899-17.64-17.64s7.898-17.641 17.64-17.641 17.64 7.898 17.64 17.64c-.004 9.742-7.898 17.64-17.64 17.64zm0 0"/><path d="M256 0C114.637 0 0 114.637 0 256s114.637 256 256 256 256-114.637 256-256S397.363 0 256 0zm146.113 316.605c-.71 15.649-3.199 26.333-6.832 35.684a75.164 75.164 0 01-42.992 42.992c-9.348 3.633-20.035 6.117-35.68 6.832-15.675.715-20.683.887-60.605.887-39.926 0-44.93-.172-60.61-.887-15.644-.715-26.331-3.199-35.68-6.832a72.018 72.018 0 01-26.038-16.957 72.044 72.044 0 01-16.953-26.035c-3.633-9.348-6.121-20.035-6.832-35.68-.723-15.68-.891-20.687-.891-60.609s.168-44.93.887-60.605c.71-15.649 3.195-26.332 6.828-35.684a72.013 72.013 0 0116.96-26.035 72.003 72.003 0 0126.036-16.957c9.352-3.633 20.035-6.117 35.684-6.832C211.07 109.172 216.078 109 256 109s44.93.172 60.605.89c15.649.712 26.332 3.196 35.684 6.825a72.061 72.061 0 0126.04 16.96 72.027 72.027 0 0116.952 26.036c3.637 9.352 6.121 20.035 6.836 35.684.715 15.675.883 20.683.883 60.605s-.168 44.93-.887 60.605zm0 0"/></svg><svg viewBox="0 0 482.239 482.239" id="left-arrow" xmlns="http://www.w3.org/2000/svg"><path d="M206.812 34.446L0 241.119l206.743 206.674 24.353-24.284L65.929 258.342h416.31v-34.445H65.929L231.165 58.661z"/></svg><svg viewBox="0 0 512.007 512.007" id="location" xmlns="http://www.w3.org/2000/svg"><linearGradient id="ata" gradientUnits="userSpaceOnUse" x1="256.004" x2="256.004" y1="512.007" y2="0"><stop offset="0" stop-color="#f7faff"/><stop offset="1" stop-color="#f7faff"/></linearGradient><path d="M256.004 195c33.091 0 60-26.909 60-60s-26.909-60-60-60-60 26.909-60 60 26.909 60 60 60zm0-90c16.538 0 30 13.462 30 30s-13.462 30-30 30-30-13.462-30-30 13.462-30 30-30zm-12.305 248.569c2.798 4.028 7.397 6.431 12.305 6.431s9.507-2.402 12.305-6.431l98.54-141.504c15.806-22.676 24.155-49.321 24.155-77.065 0-74.443-60.557-135-135-135s-135 60.557-135 135c0 27.744 8.35 54.39 24.155 77.065zM256.004 30c57.891 0 105 47.109 105 105 0 21.577-6.489 42.305-18.765 59.927L256.004 318.75l-86.235-123.823c-12.275-17.622-18.765-38.35-18.765-59.927 0-57.891 47.109-105 105-105zm254.813 461.155l-34.688-82.104a14.993 14.993 0 00-6.899-7.456l-116.313-59.971a14.964 14.964 0 00-15.234.82l-81.68 54.448-81.68-54.448c-4.585-3.062-10.576-3.34-15.454-.718-.718.396-72.924 38.892-115.756 59.692a14.892 14.892 0 00-7.266 7.661L1.19 491.17a14.978 14.978 0 003.34 16.567c4.409 4.321 11.03 5.449 16.655 2.93l126.771-56.88 100.723 56.309a14.985 14.985 0 0014.648 0l100.723-56.309 126.771 56.88c5.598 2.53 12.229 1.406 16.655-2.93 4.425-4.306 5.743-10.883 3.341-16.582zm-141.303-67.822c-4.321-1.963-9.36-1.714-13.506.571l-100.005 55.913-100.005-55.913a15.088 15.088 0 00-7.324-1.904c-2.109 0-4.219.439-6.182 1.333l-98.778 44.224 17.578-41.631c34.746-17.095 84.862-43.301 103.891-53.525l82.5 55.005a14.963 14.963 0 0016.641 0l82.617-55.078 103.656 53.379 17.681 41.836z" fill="url(#ata)"/></svg><svg version="1.1" id="marker-cast3" x="0" y="0" viewBox="-93 165.7 408.2 510.2" xml:space="preserve" xmlns="http://www.w3.org/2000/svg"><style>.aust0{fill:#5db98c}.aust1{fill:#fff}</style><path id="auShape" class="aust0" d="M114.8 165.9h-3.5C-1.5 165.9-93 256.4-93 368.1-93 533.5 75.5 654 106.5 674.5c1.4 1 3.1 1.5 4.9 1.5 1.7 0 3.4-.5 4.9-1.5 29-19.2 176.6-125.1 197-272.7 16.6-121.3-74.5-233.8-198.5-236.1v.2z"/><circle class="aust1" cx="111.1" cy="360.1" r="99.2"/></svg><svg version="1.1" id="marker-cast4" x="0" y="0" viewBox="-93 165.7 408.2 510.2" xml:space="preserve" xmlns="http://www.w3.org/2000/svg"><style>.avst0{fill:#ffdc68}.avst1{fill:#37404c}</style><path id="avShape" class="avst0" d="M114.8 165.9h-3.5C-1.5 165.9-93 256.4-93 368.1-93 533.5 75.5 654 106.5 674.5c1.4 1 3.1 1.5 4.9 1.5 1.7 0 3.4-.5 4.9-1.5 29-19.2 176.6-125.1 197-272.7 16.6-121.3-74.5-233.8-198.5-236.1v.2z"/><circle class="avst1" cx="111.1" cy="360.1" r="99.2"/></svg><svg version="1.1" id="marker-cast6" x="0" y="0" viewBox="-88.9 220.8 400 400" xml:space="preserve" xmlns="http://www.w3.org/2000/svg"><style>.awst0{opacity:.7;fill:#fff}.awst1{fill:#ff1b1b}.awst2{fill:#fff}</style><circle class="awst0" cx="111.1" cy="420.8" r="200"/><circle class="awst1" cx="111.1" cy="420.8" r="180"/><circle class="awst2" cx="111.1" cy="420.8" r="140"/></svg><svg viewBox="0 0 512.002 512.002" id="next" xmlns="http://www.w3.org/2000/svg"><path d="M388.425 241.951L151.609 5.79c-7.759-7.733-20.321-7.72-28.067.04-7.74 7.759-7.72 20.328.04 28.067l222.72 222.105-222.728 222.104c-7.759 7.74-7.779 20.301-.04 28.061a19.8 19.8 0 0014.057 5.835 19.79 19.79 0 0014.017-5.795l236.817-236.155c3.737-3.718 5.834-8.778 5.834-14.05s-2.103-10.326-5.834-14.051z"/></svg><svg viewBox="-74 0 362 362.667" id="next_(2)" xmlns="http://www.w3.org/2000/svg"><path d="M213.668 181.332c0 4.27-1.281 8.535-3.629 11.734l-106.664 160c-3.84 5.762-10.242 9.602-17.707 9.602h-64c-11.734 0-21.336-9.602-21.336-21.336 0-4.266 1.281-8.531 3.629-11.73l98.773-148.27L3.961 33.066C1.613 29.867.332 25.602.332 21.332.332 9.602 9.934 0 21.668 0h64c7.465 0 13.867 3.84 17.707 9.602l106.664 160c2.348 3.199 3.629 7.464 3.629 11.73zm0 0"/></svg><svg viewBox="0 0 97.75 97.75" id="odnoklassniki" xmlns="http://www.w3.org/2000/svg"><path d="M48.921 40.507a8.367 8.367 0 008.367-8.443c-.017-4.679-3.742-8.402-8.411-8.406a8.398 8.398 0 00-8.432 8.508c.035 4.66 3.794 8.358 8.476 8.341z"/><path d="M48.875 0C21.882 0 0 21.883 0 48.875S21.882 97.75 48.875 97.75 97.75 75.867 97.75 48.875 75.868 0 48.875 0zm.07 14.863c9.52.026 17.161 7.813 17.112 17.438-.048 9.403-7.814 17.024-17.318 16.992-9.407-.032-17.122-7.831-17.066-17.253.053-9.525 7.772-17.203 17.272-17.177zm19.282 41.194c-2.105 2.161-4.639 3.725-7.453 4.816-2.66 1.031-5.575 1.55-8.461 1.896.437.474.642.707.914.979 3.916 3.937 7.851 7.854 11.754 11.802 1.33 1.346 1.607 3.014.875 4.577-.799 1.71-2.592 2.834-4.351 2.713-1.114-.077-1.983-.63-2.754-1.407-2.956-2.974-5.968-5.895-8.862-8.925-.845-.882-1.249-.714-1.994.052a589.856 589.856 0 01-9.034 9.072c-1.365 1.346-2.989 1.59-4.573.82-1.683-.814-2.753-2.533-2.671-4.262.058-1.166.632-2.06 1.434-2.858 3.877-3.869 7.742-7.75 11.608-11.628.257-.257.495-.53.868-.93-5.273-.551-10.028-1.849-14.099-5.032-.506-.396-1.027-.778-1.487-1.222-1.783-1.711-1.962-3.672-.553-5.69 1.207-1.728 3.231-2.19 5.336-1.197.408.191.796.433 1.168.689 7.586 5.213 18.008 5.356 25.624.233.754-.576 1.561-1.05 2.496-1.289 1.816-.468 3.512.201 4.486 1.791 1.115 1.817 1.102 3.589-.271 5z"/></svg><svg version="1.1" id="plitki" x="0" y="0" viewBox="0 0 187.3 199" xml:space="preserve" xmlns="http://www.w3.org/2000/svg"><style>.bast0{stroke:#000;stroke-miterlimit:10}.bast0,.bast1{fill:#010202}</style><path class="bast0" d="M.5.5h46.3v50H.5z"/><path class="bast1" d="M141.5.5h46.3v50h-46.3z"/><path class="bast0" d="M72.5.5h46.3v50H72.5zM.5 74.5h46.3v50H.5zM140.5 74.5h46.3v50h-46.3zM70.5 74.5h46.3v50H70.5zM.5 148.5h46.3v50H.5zM140.5 148.5h46.3v50h-46.3zM70.5 148.5h46.3v50H70.5z"/></svg><svg viewBox="0 0 406.125 406.125" id="pointed-star" xmlns="http://www.w3.org/2000/svg"><path d="M260.133 155.967c-4.487 0-9.25-3.463-10.64-7.73L205.574 13.075c-1.39-4.268-3.633-4.268-5.023 0L156.64 148.237c-1.39 4.268-6.153 7.73-10.64 7.73H3.88c-4.487 0-5.186 2.138-1.553 4.78l114.971 83.521c3.633 2.642 5.454 8.242 4.064 12.51l-43.91 135.154c-1.39 4.268.431 5.592 4.064 2.951l114.971-83.521c3.633-2.642 9.519-2.642 13.152 0l114.971 83.529c3.633 2.642 5.454 1.317 4.064-2.951l-43.911-135.154c-1.39-4.268.431-9.868 4.064-12.51l114.971-83.521c3.633-2.642 2.934-4.78-1.553-4.78H260.133v-.008z" fill="#010002"/></svg><svg version="1.1" id="pointed-star05" x="0" y="0" viewBox="-94 227.5 406.2 386.4" xml:space="preserve" xmlns="http://www.w3.org/2000/svg"><style>.bcst0{fill:#ff7800}.bcst1{fill:#ccc}</style><path class="bcst0" d="M109.2 227.5V527c-2.4 0-4.8.7-6.6 2l-115 83.5c-3.6 2.6-5.5 1.3-4.1-3l43.9-135.1c1.4-4.3-.4-9.9-4.1-12.5l-115-83.5c-3.6-2.7-2.9-4.8 1.5-4.8H52.1c4.5 0 9.3-3.5 10.6-7.7l43.9-135.2c.7-2.1 1.7-3.2 2.6-3.2z"/><path class="bcst1" d="M309.9 378.4l-115 83.5c-3.6 2.6-5.5 8.2-4.1 12.5l43.9 135.2c1.4 4.3-.4 5.6-4.1 3l-115-83.5c-1.8-1.3-4.2-2-6.6-2V227.5c.9 0 1.8 1.1 2.5 3.2l44.1 135.2c1.4 4.3 6.2 7.7 10.6 7.7h142.1c4.5 0 5.2 2.2 1.6 4.8z"/></svg><svg version="1.1" id="row" x="0" y="0" viewBox="0 0 187 198.9" xml:space="preserve" xmlns="http://www.w3.org/2000/svg"><style>.bdst0{fill:#010202;stroke:#000;stroke-miterlimit:10}</style><path class="bdst0" d="M.5.5h186v49.8H.5zM.5 74.4h186v50H.5zM.5 148.4h186v50H.5z"/></svg><svg viewBox="0 0 512 512" id="search" xmlns="http://www.w3.org/2000/svg"><path d="M495 466.2L377.2 348.4c29.2-35.6 46.8-81.2 46.8-130.9C424 103.5 331.5 11 217.5 11 103.4 11 11 103.5 11 217.5S103.4 424 217.5 424c49.7 0 95.2-17.5 130.8-46.7L466.1 495c8 8 20.9 8 28.9 0 8-7.9 8-20.9 0-28.8zm-277.5-83.3C126.2 382.9 52 308.7 52 217.5S126.2 52 217.5 52C308.7 52 383 126.3 383 217.5s-74.3 165.4-165.5 165.4z"/></svg><svg viewBox="0 0 512 512" id="shopping-cart_(9)" xmlns="http://www.w3.org/2000/svg"><path d="M491.991 80h-372V20c0-11.046-8.954-20-20-20H20C8.954 0 0 8.954 0 20s8.954 20 20 20h59.991v292c0 11.046 8.954 20 20 20h332.513a19.999 19.999 0 0019.373-15.033l59.487-232C514.605 92.33 505.047 80 491.991 80zm-75.006 232H119.991V120h346.225zm-276.994 80c-33.084 0-60 26.916-60 60s26.916 60 60 60 60-26.916 60-60-26.916-60-60-60zm0 80c-11.028 0-20-8.972-20-20s8.972-20 20-20 20 8.972 20 20-8.972 20-20 20zm213.091-80c-33.084 0-60 26.916-60 60s26.916 60 60 60 60-26.916 60-60-26.916-60-60-60zm0 80c-11.028 0-20-8.972-20-20s8.972-20 20-20 20 8.972 20 20-8.972 20-20 20z"/></svg><svg viewBox="184.1 412.8 18 16.1" id="shuffle" xmlns="http://www.w3.org/2000/svg"><path d="M191.2 423.8l.6-.9c.1-.2.1-.5-.1-.6-.2-.1-.5-.1-.6.1l-.6.9c-1 1.6-2.4 2.5-3.9 2.5h-2c-.2 0-.4.2-.4.5 0 .2.2.5.4.5h2c1.7-.1 3.4-1.2 4.6-3zM201.9 415.1l-2.2-2.2c-.2-.2-.5-.2-.6 0-.2.2-.2.5 0 .6l1.4 1.4h-2.1c-1.8 0-3.5 1.1-4.7 3l-.3.5c-.1.2-.1.5.1.6.1 0 .2.1.2.1.2 0 .3-.1.4-.2l.3-.5c1-1.6 2.4-2.5 3.9-2.5h2.1l-1.4 1.4c-.2.2-.2.5 0 .6.1.1.2.1.3.1.1 0 .2 0 .3-.1l2.2-2.2c.3-.1.3-.4.1-.6zm-.9.3z"/><path d="M199.1 428.8c.1.1.2.1.3.1.1 0 .2 0 .3-.1l2.2-2.2c.2-.2.2-.5 0-.6l-2.2-2.2c-.2-.2-.5-.2-.6 0-.2.2-.2.5 0 .6l1.4 1.4h-2c-1.5 0-2.9-.9-3.9-2.5l-3.3-5.4c-1.2-1.9-2.9-3-4.7-3h-2.1c-.2 0-.4.2-.4.5 0 .2.2.5.4.5h2.1c1.5 0 2.9.9 3.9 2.5l3.3 5.4c1.2 1.9 2.9 3 4.7 3h2l-1.4 1.4c-.2.1-.2.4 0 .6zm1.9-2.5z"/></svg><svg viewBox="0 0 459 459" id="sort-button-with-three-lines" xmlns="http://www.w3.org/2000/svg"><path d="M0 382.5h153v-51H0v51zm0-306v51h459v-51H0zM0 255h306v-51H0v51z"/></svg><svg viewBox="-4.4 164.9 438.9 512" id="top-arrow" xmlns="http://www.w3.org/2000/svg"><path d="M434.4 384.5L215 164.9-4.4 384.4l25.8 25.9 175.4-175.4v442h36.6v-442l175.4 175.4 25.6-25.8z"/></svg><svg viewBox="0 0 291.319 291.319" id="twitter" xmlns="http://www.w3.org/2000/svg"><path d="M145.659 0c80.45 0 145.66 65.219 145.66 145.66 0 80.45-65.21 145.659-145.66 145.659S0 226.109 0 145.66C0 65.219 65.21 0 145.659 0z" fill="#26a6d1"/><path d="M236.724 98.129c-6.363 2.749-13.21 4.597-20.392 5.435 7.338-4.27 12.964-11.016 15.613-19.072a71.965 71.965 0 01-22.55 8.366c-6.473-6.691-15.695-10.87-25.909-10.87-19.591 0-35.486 15.413-35.486 34.439 0 2.704.31 5.335.919 7.857-29.496-1.438-55.66-15.158-73.157-35.996a33.46 33.46 0 00-4.807 17.315c0 11.944 6.263 22.504 15.786 28.668-5.826-.182-11.289-1.721-16.086-4.315v.437c0 16.696 12.235 30.616 28.476 33.784a36.707 36.707 0 01-9.35 1.211c-2.285 0-4.506-.209-6.673-.619 4.515 13.692 17.625 23.651 33.165 23.925-12.153 9.249-27.457 14.748-44.089 14.748-2.868 0-5.69-.164-8.476-.482 15.722 9.777 34.367 15.485 54.422 15.485 65.292 0 100.997-52.51 100.997-98.029l-.1-4.461a70.838 70.838 0 0017.697-17.826z" fill="#fff"/></svg><svg viewBox="0 0 551.13 551.13" id="user" xmlns="http://www.w3.org/2000/svg"><path d="M275.565 275.565c-75.972 0-137.783-61.81-137.783-137.783S199.593 0 275.565 0s137.783 61.81 137.783 137.783-61.811 137.782-137.783 137.782zm0-241.119c-56.983 0-103.337 46.353-103.337 103.337S218.581 241.12 275.565 241.12s103.337-46.354 103.337-103.337S332.548 34.446 275.565 34.446zM499.461 551.13H51.668c-9.52 0-17.223-7.703-17.223-17.223V415.349c0-17.795 9.099-34.513 23.732-43.663 129.339-80.682 305.554-80.665 434.759-.017 14.649 9.166 23.749 25.885 23.749 43.679v118.558c0 9.521-7.703 17.224-17.224 17.224zm-430.57-34.445h413.348V415.349c0-6.004-2.893-11.555-7.552-14.464-118.256-73.819-279.905-73.87-398.26.017-4.642 2.893-7.535 8.443-7.535 14.448z"/></svg><svg viewBox="0 0 112.196 112.196" id="vk" xmlns="http://www.w3.org/2000/svg"><circle cx="56.098" cy="56.098" r="56.098" fill="#4d76a1"/><path d="M53.979 80.702h4.403s1.33-.146 2.009-.878c.625-.672.605-1.934.605-1.934s-.086-5.908 2.656-6.778c2.703-.857 6.174 5.71 9.853 8.235 2.782 1.911 4.896 1.492 4.896 1.492l9.837-.137s5.146-.317 2.706-4.363c-.2-.331-1.421-2.993-7.314-8.463-6.168-5.725-5.342-4.799 2.088-14.702 4.525-6.031 6.334-9.713 5.769-11.29-.539-1.502-3.867-1.105-3.867-1.105l-11.076.069s-.821-.112-1.43.252c-.595.357-.978 1.189-.978 1.189s-1.753 4.667-4.091 8.636c-4.932 8.375-6.904 8.817-7.71 8.297-1.875-1.212-1.407-4.869-1.407-7.467 0-8.116 1.231-11.5-2.397-12.376-1.204-.291-2.09-.483-5.169-.514-3.952-.041-7.297.012-9.191.94-1.26.617-2.232 1.992-1.64 2.071.732.098 2.39.447 3.269 1.644 1.135 1.544 1.095 5.012 1.095 5.012s.652 9.554-1.523 10.741c-1.493.814-3.541-.848-7.938-8.446-2.253-3.892-3.954-8.194-3.954-8.194s-.328-.804-.913-1.234c-.71-.521-1.702-.687-1.702-.687l-10.525.069s-1.58.044-2.16.731c-.516.611-.041 1.875-.041 1.875s8.24 19.278 17.57 28.993c8.555 8.907 18.27 8.322 18.27 8.322z" fill-rule="evenodd" clip-rule="evenodd" fill="#fff"/></svg></svg>